<?xml version="1.0" encoding="iso-8859-1"?>
<!-- Generator: Adobe Illustrator 16.0.0, SVG Export Plug-In . SVG Version: 6.00 Build 0)  -->
<!DOCTYPE svg PUBLIC "-//W3C//DTD SVG 1.1//EN" "http://www.w3.org/Graphics/SVG/1.1/DTD/svg11.dtd">
<svg xmlns="http://www.w3.org/2000/svg" xmlns:xlink="http://www.w3.org/1999/xlink" version="1.1" id="Capa_1" x="0px" y="0px" width="512px" height="512px" viewBox="0 0 460.27 460.27" style="enable-background:new 0 0 460.27 460.27;" xml:space="preserve">
<g>
	<g>
		<path d="M198.606,103.653c5.272-0.328,9.38-4.699,9.38-9.981V55.135c0-5.523-4.477-10-10-10H10c-5.523,0-10,4.477-10,10v187.986    c0,5.523,4.477,10,10,10h38.538c5.282,0,9.653-4.107,9.981-9.379C63.188,168.547,123.412,108.322,198.606,103.653z" fill="#90a4ae"/>
		<path d="M320.73,185.276c-11.33-17.662-27.083-32.352-45.557-42.48c-18.529-10.159-39.436-15.529-60.46-15.529    c-69.397,0-125.855,56.458-125.855,125.854c0,32.148,11.902,62.658,33.513,85.904c21.545,23.176,50.94,37.237,82.772,39.595    c0.248,0.019,0.495,0.026,0.741,0.026c3.498,0,6.766-1.834,8.58-4.868l106.432-177.972    C322.844,192.551,322.781,188.471,320.73,185.276z" fill="#90a4ae"/>
		<path d="M458.852,400.003L353.625,224.045c-1.807-3.019-5.064-4.868-8.583-4.868s-6.777,1.848-8.583,4.868L231.232,400.003    c-1.848,3.089-1.892,6.934-0.116,10.064c1.776,3.133,5.098,5.067,8.699,5.067H450.27c3.601,0,6.922-1.935,8.698-5.067    C460.744,406.937,460.7,403.093,458.852,400.003z" fill="#90a4ae"/>
	</g>
</g>
<g>
</g>
<g>
</g>
<g>
</g>
<g>
</g>
<g>
</g>
<g>
</g>
<g>
</g>
<g>
</g>
<g>
</g>
<g>
</g>
<g>
</g>
<g>
</g>
<g>
</g>
<g>
</g>
<g>
</g>
</svg>
